999
Fixture de fidelidad 2D de AeroBim. Sintetico a proposito: los planos reales del
999
usuario no se confirman al repositorio (ver AGENTS.md). Cada entidad de aqui esta
999
para cubrir un caso que el visor dibujaba mal, y el modo `plano` de diag.html lo
999
comprueba. En milimetros, con un muro de 8 m para que la unidad se deduzca sola.
0
SECTION
2
HEADER
9
$INSUNITS
70
4
9
$LTSCALE
40
1.0
9
$LWDEFAULT
70
25
0
ENDSEC
0
SECTION
2
TABLES
0
LTYPE
2
CONTINUOUS
49
0.0
0
LTYPE
2
DASHED
49
12.0
49
-6.0
0
LAYER
2
0
62
7
0
LAYER
2
MUROS
62
4
6
CONTINUOUS
370
30
0
LAYER
2
EJES
62
3
6
DASHED
0
LAYER
2
APAGADA
62
-201
0
LAYER
2
CONGELADA
62
5
70
1
0
LAYER
2
Defpoints
62
6
0
LAYER
2
FORMATO
62
2
0
LAYER
2
MOBILIARIO
62
1
0
LAYER
2
NOTAS
62
2
0
ENDSEC
0
SECTION
2
BLOCKS
0
BLOCK
2
SILLA
10
0.0
20
0.0
0
LINE
8
0
10
0.0
20
0.0
11
400.0
21
0.0
0
CIRCLE
8
0
62
0
10
200.0
20
0.0
40
100.0
0
ENDBLK
0
BLOCK
2
*D1
10
0.0
20
0.0
0
LINE
8
MUROS
10
0.0
20
-500.0
11
8000.0
21
-500.0
0
MTEXT
8
MUROS
10
4000.0
20
-380.0
40
180.0
71
2
1
8.00
0
ENDBLK
0
BLOCK
2
PUERTA
10
0.0
20
0.0
0
LINE
8
MUROS
10
0.0
20
0.0
11
900.0
21
0.0
0
ATTDEF
8
MUROS
10
0.0
20
0.0
40
150.0
1
NUMERO
2
N
0
ENDBLK
0
ENDSEC
0
SECTION
2
ENTITIES
0
LINE
8
MUROS
10
0.0
20
0.0
11
8000.0
21
0.0
0
LINE
8
MUROS
10
0.0
20
3000.0
11
8000.0
21
3000.0
0
LINE
8
EJES
10
-500.0
20
1500.0
11
8500.0
21
1500.0
0
LINE
8
APAGADA
10
0.0
20
-2000.0
11
8000.0
21
-2000.0
0
LINE
8
CONGELADA
10
0.0
20
-2400.0
11
8000.0
21
-2400.0
0
POINT
8
Defpoints
10
0.0
20
0.0
0
LWPOLYLINE
8
FORMATO
67
1
90
4
70
1
10
0.0
20
0.0
10
420000.0
20
0.0
10
420000.0
20
297000.0
10
0.0
20
297000.0
0
POLYLINE
8
MUROS
66
1
70
1
0
VERTEX
8
MUROS
10
1000.0
20
500.0
0
VERTEX
8
MUROS
10
2000.0
20
500.0
42
1.0
0
VERTEX
8
MUROS
10
2000.0
20
1200.0
0
SEQEND
8
MUROS
0
ELLIPSE
8
MUROS
10
5000.0
20
1000.0
11
600.0
21
0.0
40
0.5
41
0.0
42
6.283185307179586
0
HATCH
8
MUROS
2
ANSI31
70
0
91
1
92
2
72
0
73
1
93
4
10
300.0
20
2600.0
10
1100.0
20
2600.0
10
1100.0
20
2900.0
10
300.0
20
2900.0
97
0
0
HATCH
8
MUROS
2
SOLID
70
1
91
1
92
2
72
0
73
1
93
4
10
1400.0
20
2600.0
10
2200.0
20
2600.0
10
2200.0
20
2900.0
10
1400.0
20
2900.0
97
0
0
INSERT
2
SILLA
8
MOBILIARIO
62
6
10
3000.0
20
2000.0
0
INSERT
2
SILLA
8
MOBILIARIO
10
6000.0
20
2000.0
70
3
71
2
44
600.0
45
400.0
0
INSERT
2
PUERTA
8
MUROS
66
1
10
2600.0
20
0.0
0
ATTRIB
8
MUROS
10
2700.0
20
120.0
40
150.0
1
P-14
2
N
0
SEQEND
8
MUROS
0
DIMENSION
8
MUROS
2
*D1
10
0.0
20
-500.0
0
MTEXT
8
NOTAS
10
400.0
20
2300.0
40
180.0
71
1
1
Sala de reuniones\P18.4 m2
0
TEXT
8
NOTAS
10
0.0
20
0.0
11
4000.0
21
1800.0
40
180.0
72
1
73
2
1
CENTRADO
0
LINE
8
NOTAS
62
1
420
3368601
440
33554560
10
7000.0
20
2600.0
11
8000.0
21
2900.0
0
MULTILEADER
8
NOTAS
100
AcDbMLeader
300
CONTEXT_DATA{
40
1.0
10
0.0
20
0.0
41
180.0
304
Llamada
12
7200.0
22
400.0
302
LEADER{
10
6900.0
20
300.0
304
LEADER_LINE{
10
6400.0
20
100.0
305
}
303
}
301
}
340
1F
10
1.0
20
1.0
0
WIPEOUT
8
MUROS
10
0.0
20
0.0
0
ENDSEC
0
EOF
